#Comment line ignore any data following # character 
#Hierarchical Translation and Rotation (.htr) file 
[Header]	
#Header keywords are followed by a single value 
FileType HTR		#Single word string
DataType HTRS		#Translation followed by rotation and scale data
FileVersion 1		#integer
NumSegments 84		#integer
NumFrames 2		#integer
DataFrameRate 30		#integer, data frame rate in this file
EulerRotationOrder ZYX
CalibrationUnits mm
RotationUnits Degrees
GlobalAxisofGravity Y
BoneLengthAxis Y
ScaleFactor 1.00
[SegmentNames&Hierarchy]
#CHILD	PARENT
MASTER GLOBAL
root MASTER
chest root
L_mid_tent01 root
R_mid_tent01 root
spine01 root
Bip01_Neck chest
L_humerus chest
R_humerus chest
weapon_bone chest
Bip01_Head Bip01_Neck
eye_left_bone Bip01_Head
eye_right_bone Bip01_Head
L_forearm L_humerus
L_front_hand L_forearm
L_weapon_bone L_forearm
L_front_hand01_01 L_front_hand
L_front_hand02_01 L_front_hand
L_front_hand03_01 L_front_hand
L_front_hand01_02 L_front_hand01_01
L_front_hand02_02 L_front_hand02_01
L_front_hand03_02 L_front_hand03_01
R_forearm R_humerus
R_front_hand R_forearm
R_weapon_bone R_forearm
R_front_hand01_01 R_front_hand
R_front_hand02_01 R_front_hand
R_front_hand03_01 R_front_hand
R_front_hand01_02 R_front_hand01_01
R_front_hand02_02 R_front_hand02_01
R_front_hand03_02 R_front_hand03_01
null_rope01_connect L_mid_tent01
Rope1_Seg01 null_rope01_connect
Rope1_Seg02 Rope1_Seg01
Rope1_Seg03 Rope1_Seg02
Rope1_Seg04 Rope1_Seg03
Rope1_Seg05 Rope1_Seg04
Rope1_Seg06 Rope1_Seg05
Rope1_Seg07 Rope1_Seg06
Rope1_Seg09 Rope1_Seg07
L_mid_hand01 Rope1_Seg09
L_mid_hand02 Rope1_Seg09
L_mid_hand03 Rope1_Seg09
null_rope02_connect R_mid_tent01
Rope2_Seg01 null_rope02_connect
Rope2_Seg02 Rope2_Seg01
Rope2_Seg03 Rope2_Seg02
Rope2_Seg04 Rope2_Seg03
Rope2_Seg05 Rope2_Seg04
Rope2_Seg06 Rope2_Seg05
Rope2_Seg07 Rope2_Seg06
Rope2_Seg09 Rope2_Seg07
R_mid_hand01 Rope2_Seg09
R_mid_hand02 Rope2_Seg09
R_mid_hand03 Rope2_Seg09
spine02 spine01
spine03 spine02
pelvis spine03
null_rope03_connect pelvis
null_rope04_connect pelvis
Rope3_Seg01 null_rope03_connect
Rope3_Seg02 Rope3_Seg01
Rope3_Seg03 Rope3_Seg02
Rope3_Seg04 Rope3_Seg03
Rope3_Seg05 Rope3_Seg04
Rope3_Seg06 Rope3_Seg05
Rope3_Seg07 Rope3_Seg06
Rope3_Seg08 Rope3_Seg07
Rope3_Seg09 Rope3_Seg08
R_rear_hand01 Rope3_Seg09
R_rear_hand02 Rope3_Seg09
R_rear_hand03 Rope3_Seg09
Rope4_Seg01 null_rope04_connect
Rope4_Seg02 Rope4_Seg01
Rope4_Seg03 Rope4_Seg02
Rope4_Seg04 Rope4_Seg03
Rope4_Seg05 Rope4_Seg04
Rope4_Seg06 Rope4_Seg05
Rope4_Seg07 Rope4_Seg06
Rope4_Seg08 Rope4_Seg07
Rope4_Seg09 Rope4_Seg08
L_rear_hand01 Rope4_Seg09
L_rear_hand02 Rope4_Seg09
L_rear_hand03 Rope4_Seg09
[BasePosition]
#SegmentName Tx, Ty, Tz, Rx, Ry, Rz, BoneLength
MASTER 0.000000 0.000000 0.000000 -90.000000 0.000000 0.000000 10.000000 
root 0.000000 0.000000 0.000000 0.000000 0.000000 0.000000 10.000000 
chest 0.000000 0.000000 0.000000 0.000000 0.000000 0.000000 10.000000 
L_mid_tent01 0.000000 0.000000 0.000000 0.000000 0.000000 0.000000 10.000000 
R_mid_tent01 0.000000 0.000000 0.000000 0.000000 0.000000 0.000000 10.000000 
spine01 0.000000 0.000000 0.000000 0.000000 0.000000 0.000000 10.000000 
Bip01_Neck 0.000000 0.000000 0.000000 0.000000 0.000000 0.000000 10.000000 
L_humerus 0.000000 0.000000 0.000000 0.000000 0.000000 0.000000 10.000000 
R_humerus 0.000000 0.000000 0.000000 0.000000 0.000000 0.000000 10.000000 
weapon_bone 0.000000 0.000000 0.000000 0.000000 0.000000 0.000000 10.000000 
Bip01_Head 0.000000 0.000000 0.000000 0.000000 0.000000 0.000000 10.000000 
eye_left_bone 0.000000 0.000000 0.000000 0.000000 0.000000 0.000000 10.000000 
eye_right_bone 0.000000 0.000000 0.000000 0.000000 0.000000 0.000000 10.000000 
L_forearm 0.000000 0.000000 0.000000 0.000000 0.000000 0.000000 10.000000 
L_front_hand 0.000000 0.000000 0.000000 0.000000 0.000000 0.000000 10.000000 
L_weapon_bone 0.000000 0.000000 0.000000 0.000000 0.000000 0.000000 10.000000 
L_front_hand01_01 0.000000 0.000000 0.000000 0.000000 0.000000 0.000000 10.000000 
L_front_hand02_01 0.000000 0.000000 0.000000 0.000000 0.000000 0.000000 10.000000 
L_front_hand03_01 0.000000 0.000000 0.000000 0.000000 0.000000 0.000000 10.000000 
L_front_hand01_02 0.000000 0.000000 0.000000 0.000000 0.000000 0.000000 10.000000 
L_front_hand02_02 0.000000 0.000000 0.000000 0.000000 0.000000 0.000000 10.000000 
L_front_hand03_02 0.000000 0.000000 0.000000 0.000000 0.000000 0.000000 10.000000 
R_forearm 0.000000 0.000000 0.000000 0.000000 0.000000 0.000000 10.000000 
R_front_hand 0.000000 0.000000 0.000000 0.000000 0.000000 0.000000 10.000000 
R_weapon_bone 0.000000 0.000000 0.000000 0.000000 0.000000 0.000000 10.000000 
R_front_hand01_01 0.000000 0.000000 0.000000 0.000000 0.000000 0.000000 10.000000 
R_front_hand02_01 0.000000 0.000000 0.000000 0.000000 0.000000 0.000000 10.000000 
R_front_hand03_01 0.000000 0.000000 0.000000 0.000000 0.000000 0.000000 10.000000 
R_front_hand01_02 0.000000 0.000000 0.000000 0.000000 0.000000 0.000000 10.000000 
R_front_hand02_02 0.000000 0.000000 0.000000 0.000000 0.000000 0.000000 10.000000 
R_front_hand03_02 0.000000 0.000000 0.000000 0.000000 0.000000 0.000000 10.000000 
null_rope01_connect 0.000000 0.000000 0.000000 0.000000 0.000000 0.000000 10.000000 
Rope1_Seg01 0.000000 0.000000 0.000000 0.000000 0.000000 0.000000 10.000000 
Rope1_Seg02 0.000000 0.000000 0.000000 0.000000 0.000000 0.000000 10.000000 
Rope1_Seg03 0.000000 0.000000 0.000000 0.000000 0.000000 0.000000 10.000000 
Rope1_Seg04 0.000000 0.000000 0.000000 0.000000 0.000000 0.000000 10.000000 
Rope1_Seg05 0.000000 0.000000 0.000000 0.000000 0.000000 0.000000 10.000000 
Rope1_Seg06 0.000000 0.000000 0.000000 0.000000 0.000000 0.000000 10.000000 
Rope1_Seg07 0.000000 0.000000 0.000000 0.000000 0.000000 0.000000 10.000000 
Rope1_Seg09 0.000000 0.000000 0.000000 0.000000 0.000000 0.000000 10.000000 
L_mid_hand01 0.000000 0.000000 0.000000 0.000000 0.000000 0.000000 10.000000 
L_mid_hand02 0.000000 0.000000 0.000000 0.000000 0.000000 0.000000 10.000000 
L_mid_hand03 0.000000 0.000000 0.000000 0.000000 0.000000 0.000000 10.000000 
null_rope02_connect 0.000000 0.000000 0.000000 0.000000 0.000000 0.000000 10.000000 
Rope2_Seg01 0.000000 0.000000 0.000000 0.000000 0.000000 0.000000 10.000000 
Rope2_Seg02 0.000000 0.000000 0.000000 0.000000 0.000000 0.000000 10.000000 
Rope2_Seg03 0.000000 0.000000 0.000000 0.000000 0.000000 0.000000 10.000000 
Rope2_Seg04 0.000000 0.000000 0.000000 0.000000 0.000000 0.000000 10.000000 
Rope2_Seg05 0.000000 0.000000 0.000000 0.000000 0.000000 0.000000 10.000000 
Rope2_Seg06 0.000000 0.000000 0.000000 0.000000 0.000000 0.000000 10.000000 
Rope2_Seg07 0.000000 0.000000 0.000000 0.000000 0.000000 0.000000 10.000000 
Rope2_Seg09 0.000000 0.000000 0.000000 0.000000 0.000000 0.000000 10.000000 
R_mid_hand01 0.000000 0.000000 0.000000 0.000000 0.000000 0.000000 10.000000 
R_mid_hand02 0.000000 0.000000 0.000000 0.000000 0.000000 0.000000 10.000000 
R_mid_hand03 0.000000 0.000000 0.000000 0.000000 0.000000 0.000000 10.000000 
spine02 0.000000 0.000000 0.000000 0.000000 0.000000 0.000000 10.000000 
spine03 0.000000 0.000000 0.000000 0.000000 0.000000 0.000000 10.000000 
pelvis 0.000000 0.000000 0.000000 0.000000 0.000000 0.000000 10.000000 
null_rope03_connect 0.000000 0.000000 0.000000 0.000000 0.000000 0.000000 10.000000 
null_rope04_connect 0.000000 0.000000 0.000000 0.000000 0.000000 0.000000 10.000000 
Rope3_Seg01 0.000000 0.000000 0.000000 0.000000 0.000000 0.000000 10.000000 
Rope3_Seg02 0.000000 0.000000 0.000000 0.000000 0.000000 0.000000 10.000000 
Rope3_Seg03 0.000000 0.000000 0.000000 0.000000 0.000000 0.000000 10.000000 
Rope3_Seg04 0.000000 0.000000 0.000000 0.000000 0.000000 0.000000 10.000000 
Rope3_Seg05 0.000000 0.000000 0.000000 0.000000 0.000000 0.000000 10.000000 
Rope3_Seg06 0.000000 0.000000 0.000000 0.000000 0.000000 0.000000 10.000000 
Rope3_Seg07 0.000000 0.000000 0.000000 0.000000 0.000000 0.000000 10.000000 
Rope3_Seg08 0.000000 0.000000 0.000000 0.000000 0.000000 0.000000 10.000000 
Rope3_Seg09 0.000000 0.000000 0.000000 0.000000 0.000000 0.000000 10.000000 
R_rear_hand01 0.000000 0.000000 0.000000 0.000000 0.000000 0.000000 10.000000 
R_rear_hand02 0.000000 0.000000 0.000000 0.000000 0.000000 0.000000 10.000000 
R_rear_hand03 0.000000 0.000000 0.000000 0.000000 0.000000 0.000000 10.000000 
Rope4_Seg01 0.000000 0.000000 0.000000 0.000000 0.000000 0.000000 10.000000 
Rope4_Seg02 0.000000 0.000000 0.000000 0.000000 0.000000 0.000000 10.000000 
Rope4_Seg03 0.000000 0.000000 0.000000 0.000000 0.000000 0.000000 10.000000 
Rope4_Seg04 0.000000 0.000000 0.000000 0.000000 0.000000 0.000000 10.000000 
Rope4_Seg05 0.000000 0.000000 0.000000 0.000000 0.000000 0.000000 10.000000 
Rope4_Seg06 0.000000 0.000000 0.000000 0.000000 0.000000 0.000000 10.000000 
Rope4_Seg07 0.000000 0.000000 0.000000 0.000000 0.000000 0.000000 10.000000 
Rope4_Seg08 0.000000 0.000000 0.000000 0.000000 0.000000 0.000000 10.000000 
Rope4_Seg09 0.000000 0.000000 0.000000 0.000000 0.000000 0.000000 10.000000 
L_rear_hand01 0.000000 0.000000 0.000000 0.000000 0.000000 0.000000 10.000000 
L_rear_hand02 0.000000 0.000000 0.000000 0.000000 0.000000 0.000000 10.000000 
L_rear_hand03 0.000000 0.000000 0.000000 0.000000 0.000000 0.000000 10.000000 
#Beginning of Data. Separated by tabs
#Fr	Tx	Ty	Tz	Rx	Ry	Rz	SF
[MASTER]
14 -0.000568 3027.608887 395.336823 0.001660 0.001660 0.001660 3053.310547
15 -0.000606 3218.533691 403.748993 0.001660 0.001660 0.001660 3243.759033
[root]
14 -37.882366 -51.398621 1502.621460 -86.965645 -6.890720 -92.819374 1503.977417
15 -37.384415 -54.150387 1502.605225 -88.732346 -8.560845 -92.679611 1504.045288
[chest]
14 -84.512650 -34.090519 0.000000 -1.989184 0.685441 177.973114 91.129311
15 -84.512650 -34.090519 0.000000 -1.969382 0.745611 178.867584 91.129311
[L_mid_tent01]
14 27.299133 22.179201 -249.918716 -11.994400 6.233809 15.364558 252.381714
15 27.299137 22.179205 -249.918716 -12.846172 6.829096 15.167576 252.381714
[R_mid_tent01]
14 23.228794 24.509907 226.238495 179.666351 -8.422798 24.389969 228.744751
15 23.228794 24.509907 226.238495 -178.916946 -9.330350 24.470945 228.744751
[spine01]
14 -0.361383 -0.195265 0.000000 0.002046 0.001150 31.310215 0.410763
15 -0.361383 -0.195265 0.000000 0.002042 0.001158 30.873873 0.410763
[Bip01_Neck]
14 165.484543 71.581718 0.000119 176.643677 -1.657967 43.431911 180.302734
15 165.484543 71.581718 0.000119 176.643677 -1.657967 43.431911 180.302734
[L_humerus]
14 -13.983130 -135.272980 -120.471481 -6.975738 64.089516 82.876053 181.680161
15 -13.983130 -135.272980 -120.471481 -6.926821 64.307983 82.935844 181.680161
[R_humerus]
14 -13.983309 -135.273102 125.287651 25.723879 -64.890732 69.998299 184.909012
15 -13.983309 -135.273102 125.287651 25.807369 -65.121605 69.911644 184.909012
[weapon_bone]
14 235.964890 -300.705902 0.000000 0.000000 -89.951546 -128.212341 382.234833
15 235.964890 -300.705902 0.000000 0.000000 -89.951546 -128.212341 382.234833
[Bip01_Head]
14 213.528137 185.481812 14.793854 4.441945 -1.131530 -43.899635 283.225403
15 213.472595 185.636810 12.792797 4.438503 -0.898050 -43.900337 283.187592
[eye_left_bone]
14 -24.626970 125.451866 -64.772606 0.000000 -90.000000 -99.840431 143.318359
15 -24.626970 125.451866 -64.772606 0.000000 -90.000000 -99.840431 143.318359
[eye_right_bone]
14 -24.626970 125.451866 64.327362 0.000000 -89.965736 80.156380 143.117676
15 -24.626970 125.451866 64.327362 0.000000 -89.965736 80.156380 143.117676
[L_forearm]
14 322.776093 0.000000 -0.000119 0.000428 -0.002308 -111.035805 322.776093
15 322.776093 0.000000 -0.000119 0.000427 -0.002308 -110.969788 322.776093
[L_front_hand]
14 241.149185 -0.042021 -3.300071 -178.667953 -1.835447 -27.422342 241.171753
15 241.149185 -0.042021 -3.300071 -178.667953 -1.835447 -27.422350 241.171753
[L_weapon_bone]
14 156.183838 0.000000 0.000000 0.000014 0.000007 0.000001 156.183838
15 156.183838 0.000000 0.000000 0.000014 0.000007 0.000001 156.183838
[L_front_hand01_01]
14 86.095154 20.947098 -0.655860 -0.273650 -0.533287 65.061523 88.609184
15 86.095154 20.947098 -0.655860 -0.274633 -0.532782 65.272827 88.609184
[L_front_hand02_01]
14 86.935165 -11.437475 24.513514 140.858566 -54.305298 -45.287003 91.046425
15 86.935165 -11.437475 24.513514 141.090271 -54.445614 -45.572052 91.046425
[L_front_hand03_01]
14 86.637497 -14.123976 -20.424902 -141.258987 52.537949 -47.363300 90.126129
15 86.637497 -14.123976 -20.424902 -141.476303 52.677540 -47.637543 90.126129
[L_front_hand01_02]
14 71.020905 -0.000179 0.000030 0.000315 -0.002326 -105.409866 71.020905
15 71.020905 -0.000179 0.000030 0.000315 -0.002326 -105.405197 71.020905
[L_front_hand02_02]
14 71.020927 -0.000119 0.000060 0.000315 -0.002326 -105.409866 71.020927
15 71.020927 -0.000119 0.000060 0.000315 -0.002326 -105.405197 71.020927
[L_front_hand03_02]
14 71.020905 -0.000060 0.000060 0.000315 -0.002326 -105.409866 71.020905
15 71.020905 -0.000060 0.000060 0.000315 -0.002326 -105.405197 71.020905
[R_forearm]
14 322.776428 -0.000060 0.000030 0.201149 0.068046 -109.704254 322.776428
15 322.776428 -0.000060 0.000030 0.201199 0.067897 -109.619522 322.776428
[R_front_hand]
14 238.847015 -0.006795 2.210259 -2.635298 -10.645461 -26.312506 238.857239
15 238.847015 -0.006795 2.210259 -2.635298 -10.645461 -26.312506 238.857239
[R_weapon_bone]
14 155.664093 0.002503 -0.000030 0.003487 0.001180 -90.988930 155.664078
15 155.664093 0.002503 -0.000030 0.003487 0.001180 -90.988930 155.664078
[R_front_hand01_01]
14 87.624611 14.231146 22.918642 -138.707092 -52.961746 42.720669 91.683487
15 87.624611 14.231146 22.918642 -138.456909 -52.798630 42.405624 91.683487
[R_front_hand02_01]
14 89.356956 14.367283 -19.491137 139.537384 51.404167 45.405891 92.579636
15 89.356956 14.367283 -19.491137 139.300415 51.240429 45.105949 92.579636
[R_front_hand03_01]
14 87.286232 -22.307278 -0.143439 0.065057 -0.451640 -63.223511 90.091743
15 87.286232 -22.307278 -0.143439 0.064051 -0.451784 -62.968155 90.091743
[R_front_hand01_02]
14 71.020905 0.000060 0.000119 0.002323 -0.000334 106.381714 71.020905
15 71.020905 0.000060 0.000119 0.002323 -0.000334 106.381714 71.020905
[R_front_hand02_02]
14 71.020844 -0.000030 -0.000119 0.002323 -0.000334 106.381714 71.020836
15 71.020844 -0.000030 -0.000119 0.002323 -0.000334 106.381714 71.020836
[R_front_hand03_02]
14 71.020905 0.000000 0.000030 0.002323 -0.000334 106.381714 71.020905
15 71.020905 0.000000 0.000030 0.002323 -0.000334 106.381714 71.020905
[null_rope01_connect]
14 328.732483 0.000000 -0.000238 -145.524704 -78.115303 -133.918381 328.732483
15 328.732483 0.000000 -0.000238 -148.241837 -75.498581 -129.454468 328.732483
[Rope1_Seg01]
14 -0.000017 0.000022 0.000066 23.097353 14.319841 -114.832596 0.000072
15 -0.000018 0.000020 0.000071 38.846931 13.407977 -118.069862 0.000076
[Rope1_Seg02]
14 139.999863 -0.000179 0.000000 23.726509 -0.165361 -4.956792 139.999863
15 139.999863 -0.000179 0.000000 16.448763 -0.826585 -3.261433 139.999863
[Rope1_Seg03]
14 139.999924 0.000060 -0.000060 46.527725 -3.998258 -6.005987 139.999924
15 139.999924 0.000060 -0.000060 30.188292 -3.602310 -4.009501 139.999924
[Rope1_Seg04]
14 139.999924 -0.000060 -0.000119 29.651621 -14.691631 -0.230586 139.999924
15 139.999924 -0.000060 -0.000119 30.180861 -12.588921 -1.628280 139.999924
[Rope1_Seg05]
14 139.999832 0.000119 -0.000060 -8.804871 11.304739 -11.658714 139.999832
15 139.999832 0.000119 -0.000060 -44.703003 13.825107 -10.969239 139.999832
[Rope1_Seg06]
14 139.999954 0.000119 -0.000060 -162.199341 20.205702 -13.820456 139.999954
15 139.999954 0.000119 -0.000060 -110.163116 21.249346 3.636130 139.999954
[Rope1_Seg07]
14 139.999985 0.000060 0.000000 -2.233053 -4.602437 6.619850 139.999985
15 139.999985 0.000060 0.000000 -3.509816 -3.299559 6.119868 139.999985
[Rope1_Seg09]
14 121.602913 0.000119 -0.000089 -89.793175 -1.359789 0.847147 121.602913
15 121.602913 0.000119 -0.000089 -89.793175 -1.359789 0.847147 121.602913
[L_mid_hand01]
14 103.859421 1.038730 8.195221 115.405022 -54.702587 -21.718943 104.187431
15 103.859421 1.038730 8.195221 118.511871 -58.710987 -25.432119 104.187431
[L_mid_hand02]
14 105.572853 -4.139662 -10.864139 -156.173538 38.796780 -54.226360 106.211075
15 105.572853 -4.139662 -10.864139 -159.626373 40.490181 -59.638344 106.211075
[L_mid_hand03]
14 104.641464 17.579376 -3.913581 -10.557026 15.605444 59.191402 106.179977
15 104.641464 17.579376 -3.913581 -9.285491 16.381809 63.801434 106.179977
[null_rope02_connect]
14 328.732849 0.000179 -0.000119 -132.394104 82.289986 -25.253256 328.732849
15 328.732849 0.000179 -0.000119 -128.000641 82.144524 -22.206116 328.732849
[Rope2_Seg01]
14 0.000055 0.000086 0.000000 39.820572 -5.750087 -49.603729 0.000102
15 0.000056 0.000081 0.000000 30.713779 -3.817970 -45.216278 0.000099
[Rope2_Seg02]
14 139.999741 -0.000060 -0.000119 27.795372 -0.413277 -12.648775 139.999756
15 139.999741 -0.000060 -0.000119 33.571316 -0.569024 -13.444806 139.999756
[Rope2_Seg03]
14 140.000107 0.000030 0.000000 32.548214 -8.172185 -14.613688 140.000107
15 140.000107 0.000030 0.000000 35.505161 -10.910021 -15.357882 140.000107
[Rope2_Seg04]
14 139.999802 0.000000 -0.000060 24.699701 -23.490757 -13.685577 139.999802
15 139.999802 0.000000 -0.000060 20.902050 -28.365042 -10.742428 139.999802
[Rope2_Seg05]
14 139.999985 -0.000060 0.000119 2.009009 -4.963177 -0.738962 139.999985
15 139.999985 -0.000060 0.000119 1.364908 -4.245895 -0.593376 139.999985
[Rope2_Seg06]
14 139.999893 -0.000030 -0.000119 -7.109810 15.316918 0.999391 139.999893
15 139.999893 -0.000030 -0.000119 -5.509618 17.217813 -1.168591 139.999893
[Rope2_Seg07]
14 139.999893 0.000060 -0.000060 -7.094489 8.857651 1.703027 139.999893
15 139.999893 0.000060 -0.000060 -5.471712 9.658624 0.214808 139.999893
[Rope2_Seg09]
14 121.338966 0.000089 -0.000060 33.793236 -1.359788 -0.847141 121.338966
15 121.338966 0.000089 -0.000060 33.793236 -1.359788 -0.847141 121.338966
[R_mid_hand01]
14 104.680779 11.144459 -10.335981 -36.578453 32.644390 38.740570 105.778534
15 104.680779 11.144459 -10.335981 -34.826851 34.540035 41.908733 105.778534
[R_mid_hand02]
14 104.070427 2.443552 8.231699 69.973366 -43.581707 14.639650 104.424065
15 104.070427 2.443552 8.231699 68.824310 -46.622631 16.260359 104.424065
[R_mid_hand03]
14 106.028137 -11.221827 -5.996406 -170.161224 12.441347 -48.449886 106.788818
15 106.028137 -11.221827 -5.996406 -170.883774 12.973572 -51.735531 106.788818
[spine02]
14 129.756927 0.001550 0.000119 0.521241 -4.026094 -15.259292 129.756927
15 129.756927 0.001550 0.000119 0.514657 -4.026955 -15.141751 129.756927
[spine03]
14 78.613991 0.081568 -4.899003 1.993961 3.784203 17.926956 78.766525
15 78.613983 0.081563 -4.899002 1.989526 3.785633 17.866713 78.766518
[pelvis]
14 169.435242 0.051022 0.000000 -0.069991 -0.177870 17.048092 169.435257
15 169.435242 0.051022 0.000000 -0.069781 -0.177953 16.913078 169.435257
[null_rope03_connect]
14 -1.257226 -2.466202 137.391083 -31.728626 -84.946739 77.686363 137.418976
15 -1.257226 -2.466202 137.391083 -46.207649 -86.332161 94.325684 137.418976
[null_rope04_connect]
14 -1.259640 -2.480268 -137.844437 -31.728626 -84.946739 77.686363 137.872513
15 -1.259640 -2.480268 -137.844437 -46.207649 -86.332161 94.325684 137.872513
[Rope3_Seg01]
14 0.000010 0.000038 -0.000114 -131.832092 18.904884 -78.956024 0.000121
15 0.000010 0.000038 -0.000114 -131.325333 16.813906 -77.857681 0.000121
[Rope3_Seg02]
14 139.999924 -0.000119 0.000060 0.701881 5.637009 3.755647 139.999924
15 139.999924 -0.000119 0.000060 0.773080 6.507948 4.584468 139.999924
[Rope3_Seg03]
14 139.999924 -0.000119 0.000119 1.130788 6.170230 4.120048 139.999924
15 139.999924 -0.000119 0.000119 1.353639 7.228721 5.143819 139.999924
[Rope3_Seg04]
14 139.999924 0.000119 0.000000 2.984525 11.015200 10.112903 139.999924
15 139.999924 0.000119 0.000000 4.010630 12.763929 11.217100 139.999924
[Rope3_Seg05]
14 139.999924 -0.000238 0.000060 1.929106 3.035507 -0.080817 139.999924
15 139.999924 -0.000238 0.000060 1.610357 1.809516 -0.873234 139.999924
[Rope3_Seg06]
14 139.999893 -0.000119 -0.000060 1.303343 -9.602377 -13.764693 139.999893
15 139.999893 -0.000119 -0.000060 0.603801 -12.039173 -13.861064 139.999893
[Rope3_Seg07]
14 139.999771 0.000060 -0.000119 1.054035 -7.054979 -10.026061 139.999771
15 139.999771 0.000060 -0.000119 0.832735 -7.717412 -9.205029 139.999771
[Rope3_Seg08]
14 139.999985 -0.000060 0.000000 0.668559 -3.079710 -4.727714 139.999985
15 139.999985 -0.000060 0.000000 0.637389 -3.449146 -4.338157 139.999985
[Rope3_Seg09]
14 90.185997 -0.000179 -0.000060 89.793228 -1.359877 -0.847183 90.185997
15 90.185997 -0.000179 -0.000060 89.793228 -1.359877 -0.847183 90.185997
[R_rear_hand01]
14 103.366196 -6.073594 -10.757982 -166.165070 20.624767 -44.436901 104.101845
15 103.366196 -6.073594 -10.757982 -167.735992 21.565800 -48.800823 104.101845
[R_rear_hand02]
14 100.509819 12.039542 -7.992327 -29.134808 26.762827 41.953499 101.543350
15 100.509819 12.039542 -7.992327 -27.197794 28.737703 46.115391 101.543350
[R_rear_hand03]
14 101.539970 5.215704 5.435467 81.948593 -44.972103 9.574173 101.819031
15 101.539970 5.215704 5.435467 81.295586 -49.108280 10.466788 101.819031
[Rope4_Seg01]
14 0.000010 0.000038 -0.000114 45.894367 7.524818 -121.330498 0.000121
15 0.000010 0.000038 -0.000114 44.658546 7.816369 -126.049301 0.000121
[Rope4_Seg02]
14 139.999985 0.000060 0.000119 0.382317 8.701423 4.153409 139.999985
15 139.999985 0.000060 0.000119 0.873593 8.354650 5.611803 139.999985
[Rope4_Seg03]
14 139.999924 0.000000 -0.000238 0.544970 10.760939 5.131575 139.999924
15 139.999924 0.000000 -0.000238 0.942510 11.388415 7.576415 139.999924
[Rope4_Seg04]
14 139.999985 0.000000 0.000119 1.768165 19.253672 7.882682 139.999985
15 139.999985 0.000000 0.000119 1.823864 21.675558 14.269667 139.999985
[Rope4_Seg05]
14 139.999802 -0.000060 -0.000119 -0.259832 6.492230 4.039852 139.999802
15 139.999802 -0.000060 -0.000119 -0.904964 8.813066 6.344244 139.999802
[Rope4_Seg06]
14 139.999924 0.000000 0.000060 -1.494255 -11.423546 -1.494255 139.999924
15 139.999924 0.000000 0.000060 1.591521 -12.333006 -7.094649 139.999924
[Rope4_Seg07]
14 139.999802 0.000000 0.000000 -0.476921 -6.936028 -1.014909 139.999802
15 139.999802 0.000000 0.000000 0.691430 -7.996392 -4.400696 139.999802
[Rope4_Seg08]
14 139.999924 0.000000 0.000119 -1.701586 -2.686639 -0.151394 139.999924
15 139.999924 0.000000 0.000119 -1.382925 -2.859945 -1.418445 139.999924
[Rope4_Seg09]
14 90.185791 0.000060 0.000060 -135.617828 2.228885 0.850567 90.185791
15 90.185791 0.000060 0.000060 -135.617828 2.228885 0.850567 90.185791
[L_rear_hand01]
14 101.696655 -8.392275 -7.654577 -21.399752 -33.105400 122.636459 102.329041
15 101.696655 -8.392275 -7.654577 -18.919888 -34.466518 118.185951 102.329041
[L_rear_hand02]
14 102.726799 -1.568258 5.773216 78.723900 59.531788 166.383713 102.900848
15 102.726799 -1.568258 5.773216 77.226944 63.386848 164.679077 102.900848
[L_rear_hand03]
14 104.552910 9.721220 -10.420293 -172.062332 -23.429153 -119.922249 105.519653
15 104.552910 9.721220 -10.420293 -173.780411 -23.916803 -115.646591 105.519653
